<svg id="el_DTtGQSiXY" data-name="Слой 1" xmlns="http://www.w3.org/2000/svg" viewBox="0 0 193 193"><style>@-webkit-keyframes kf_el_HdFHVHiKJo_an_eeVvzM_ly{0%{-webkit-transform: translate(96.46502685546875px, 96.51495361328125px) rotate(0deg) translate(-96.46502685546875px, -96.51495361328125px);transform: translate(96.46502685546875px, 96.51495361328125px) rotate(0deg) translate(-96.46502685546875px, -96.51495361328125px);}100%{-webkit-transform: translate(96.46502685546875px, 96.51495361328125px) rotate(360deg) translate(-96.46502685546875px, -96.51495361328125px);transform: translate(96.46502685546875px, 96.51495361328125px) rotate(360deg) translate(-96.46502685546875px, -96.51495361328125px);}}@keyframes kf_el_HdFHVHiKJo_an_eeVvzM_ly{0%{-webkit-transform: translate(96.46502685546875px, 96.51495361328125px) rotate(0deg) translate(-96.46502685546875px, -96.51495361328125px);transform: translate(96.46502685546875px, 96.51495361328125px) rotate(0deg) translate(-96.46502685546875px, -96.51495361328125px);}100%{-webkit-transform: translate(96.46502685546875px, 96.51495361328125px) rotate(360deg) translate(-96.46502685546875px, -96.51495361328125px);transform: translate(96.46502685546875px, 96.51495361328125px) rotate(360deg) translate(-96.46502685546875px, -96.51495361328125px);}}#el_DTtGQSiXY *{-webkit-animation-duration: 15s;animation-duration: 15s;-webkit-animation-iteration-count: infinite;animation-iteration-count: infinite;-webkit-animation-timing-function: cubic-bezier(0, 0, 1, 1);animation-timing-function: cubic-bezier(0, 0, 1, 1);}#el_PC07ZE02P4{fill-rule: evenodd;-webkit-transform: translate(-653px, -654px);transform: translate(-653px, -654px);}#el_DrF0PKWRgO{fill-rule: evenodd;-webkit-transform: translate(-653px, -654px);transform: translate(-653px, -654px);}#el_HdFHVHiKJo_an_eeVvzM_ly{-webkit-animation-fill-mode: backwards;animation-fill-mode: backwards;-webkit-transform: translate(96.46502685546875px, 96.51495361328125px) rotate(0deg) translate(-96.46502685546875px, -96.51495361328125px);transform: translate(96.46502685546875px, 96.51495361328125px) rotate(0deg) translate(-96.46502685546875px, -96.51495361328125px);-webkit-animation-name: kf_el_HdFHVHiKJo_an_eeVvzM_ly;animation-name: kf_el_HdFHVHiKJo_an_eeVvzM_ly;-webkit-animation-timing-function: cubic-bezier(0, 0, 1, 1);animation-timing-function: cubic-bezier(0, 0, 1, 1);}</style>
  <defs>
    
  </defs>
  <title>island_main</title>
  <g id="el_HdFHVHiKJo_an_eeVvzM_ly" data-animator-group="true" data-animator-type="1"><g id="el_HdFHVHiKJo" data-name="Island Soul Jewelry from bali">
    <path d="M700,667.37l5.92,10.07,1.14-.67-5.92-10.07ZM723,666.24c-.63-1.71-2.08-2.19-4.72-1.82s-3.38,0-3.76-1,.25-2.14,1.67-2.66a5.14,5.14,0,0,1,3.6,0l.37-1.22a6.1,6.1,0,0,0-4.35.07c-2.08.77-3.14,2.59-2.5,4.32s2.13,2.22,4.86,1.84c2.48-.36,3.24,0,3.62,1s-.27,2.25-1.75,2.79a5.57,5.57,0,0,1-4.33-.17l-.43,1.19a6.84,6.84,0,0,0,5.13.11C722.62,669.91,723.74,668.12,723,666.24Zm12-.81-1.47-10.36-1.31.18,1.64,11.56,7.82-1.1-.17-1.21ZM756.78,654l-6.27,11.28,1.35.11,1.63-3,6.34.52,1.11,3.19,1.41.12L758,654.1Zm-2.68,7.3,3.15-5.72,2.15,6.15Zm30.8-.89-1.22-.41-3,8.87-4-11.22-1.17-.39-3.73,11.07,1.22.41,3.06-9.08,4.1,11.49,1,.34Zm17.69,16.26c1.78-2.8,1-6.29-2.1-8.26l-3.42-2.18-6.27,9.86,3.42,2.18A5.85,5.85,0,0,0,802.59,676.66Zm-7.72.57-2.31-1.47,5-7.8,2.31,1.47a4.63,4.63,0,1,1-5,7.8Zm28,24.5c1.47-1.08,1.52-2.61.43-5s-.94-3.25-.05-3.9,2.12-.36,3,.87a5.13,5.13,0,0,1,1,3.47l1.28,0a6.09,6.09,0,0,0-1.28-4.16c-1.32-1.79-3.36-2.29-4.84-1.2s-1.54,2.67-.42,5.18c1,2.28.89,3.12,0,3.76s-2.24.36-3.17-.9a5.56,5.56,0,0,1-1-4.2l-1.26-.09a6.83,6.83,0,0,0,1.32,5C819.26,702.35,821.3,702.92,822.91,701.74Zm4.49,15.59a6,6,0,1,0,3.25-7.83A5.92,5.92,0,0,0,827.4,717.33Zm3.78-6.57a4.6,4.6,0,1,1-2.65,6.12A4.6,4.6,0,0,1,831.18,710.76Zm1.91,26.45c.45,2.88,2.5,4.54,5.86,4l6.61-1-.2-1.3-6.71,1c-2.52.39-4-.76-4.35-2.88s.85-3.75,3.34-4.13l6.63-1-.2-1.3-6.71,1C834.09,732.14,832.65,734.36,833.09,737.21Zm1.25,15.27-.51,7.88,1.22.08.43-6.56,10.44.68.09-1.32Zm-6,32a3,3,0,0,1,2.6-1.77l-.37-1.2a4,4,0,0,0-3.34,2.47,3.58,3.58,0,0,0-.15,2.74,4.21,4.21,0,0,0,2.38,2.21L836.6,792l.54-1.22L830,787.67C828.27,786.92,827.79,785.65,828.32,784.45Zm-12.5,19,1,.7,4.2-5.86,3.33,2.38-3.71,5.18,1,.7,3.71-5.18,3.25,2.32-4.15,5.8,1,.7,4.91-6.87-9.5-6.8Zm-10,10.32,3.56,9.36-8.51-5.27-.86.71,4.28,11.73,1.07-.88-3.62-9.63,8.69,5.48.84-.69L807.52,815l8.77,5.37,1.11-.91L806.69,813ZM780.5,829.5l.5,1.09,6.56-3,1.7,3.72-5.8,2.65.5,1.09,5.8-2.65,1.66,3.63-6.48,3,.5,1.09,7.68-3.51L788.26,826Zm-17.24,4.74.26,1.19,6.43-1.4,2.23,10.22,1.29-.28L771,832.56Zm-11.13,5.6-3.34-.05-3.32-4.59-1.62,0,3.51,4.83c-1.84.3-3.19,1.42-3.23,3.35a3.25,3.25,0,0,0,.86,2.35,4.61,4.61,0,0,0,3.3,1.22l5,.08.19-11.68-1.32,0Zm-.09,5.92-3.61-.06c-1.89,0-3-.92-3-2.35s1.29-2.42,3-2.39l3.59.06Zm-21-12.5-1.3-.3-1,4.52-6.3,5.78,1.5.34L729,838.8l2.54,6.57,1.56.36-3.16-8Zm-29.85-6.87-5.24-3.54-.67,1,5.24,3.54-2.33,3.46-5.87-4-.68,1,7,4.69,6.54-9.68-1.09-.74ZM686.4,813.95l-2.29-2.43,1-5.58L684,804.77l-1,5.88c-1.5-1.11-3.24-1.3-4.65,0a3.25,3.25,0,0,0-1.08,2.26,4.6,4.6,0,0,0,1.43,3.22l3.45,3.65,8.5-8-.9-1ZM682.09,818l-2.47-2.62c-1.29-1.37-1.42-2.77-.37-3.75s2.63-.76,3.83.51l2.46,2.61Zm-14.65-28.12a6,6,0,1,0,8.21,2.21A5.87,5.87,0,0,0,667.43,789.89Zm5.21,9.17a4.6,4.6,0,1,1,1.92-6.39A4.6,4.6,0,0,1,672.64,799.06Zm-4.26-22.73-9.13,2.42L664.2,773l0-.06L657,770.46l9.15-2.42-.34-1.27-11.3,3,.34,1.29,7.25,2.48-5.07,5.75.34,1.29,11.3-3Zm-3.14-37.65c.32-2.53-.64-4.35-2.63-4.61-1.62-.21-2.56.8-3.15,2.12A2.82,2.82,0,0,0,657,734a2.62,2.62,0,0,0-2,.5,4.19,4.19,0,0,0-1.41,2.9l-.63,4.93,11.59,1.48Zm-6.48-.39-.44,3.43-4-.51.45-3.53c.21-1.66,1.07-2.47,2.22-2.32C658.4,735.53,659,736.72,658.77,738.29Zm5.31.21-.5,3.89-4.09-.52.47-3.66c.26-2,1.12-3,2.38-2.82S664.3,736.74,664.08,738.5Zm4.27-14L666,722.07l2.26-5.94,3.37-.18.5-1.33-12.89.79-.44,1.15,9.11,9.16Zm-7.94-7.91,6.51-.36-1.89,5Zm19.74-17.62-3.66,5.46-8.7-5.82-.73,1.1,9.71,6.49,4.39-6.56Zm8.39-7.79-8.43-8.08-.91,1,8.43,8.08Z" id="el_PC07ZE02P4"/>
  </g></g>
  <g id="el_Z4BNglp9kN" data-name="Фигура 15">
    <path d="M785.43,747.42a14.13,14.13,0,0,0-2.3-2.38,13.55,13.55,0,0,1-2.32-2.41,10.85,10.85,0,0,0-2.53-3.58l-.15-.12s-4.3-3.09-10.77-7c-7.07-4.28-11.5-5.15-15.23-5.45-4-.32-5.34.91-5.78,1.54l-1.85,2.07c-1.36,1.48-5.34,5.58-7.46,6.75-2.88,1.59-6.71.81-8.75.19a15.88,15.88,0,0,1-5.12-3.06,15.85,15.85,0,0,0-1.78-1.3c-1.43-.83-3.48-.56-5-.37a10.14,10.14,0,0,1-1,.11,9.77,9.77,0,0,1-3.08-1.3,5,5,0,0,1-1.77-2,2.16,2.16,0,0,0-1.17-1.65,3.13,3.13,0,0,0-3.32.44,9.31,9.31,0,0,1-3.74.92,3.33,3.33,0,0,0-3.32,2.29,2.44,2.44,0,0,0,1,2.76c0,.29-.09.61-.14.86a6.68,6.68,0,0,0-.17,2.94c.23.68,1,1.62,2.79,3.59.31.34.57.63.71.8a1.42,1.42,0,0,1,.26.73,1.39,1.39,0,0,0,.41,1c.45.45,1,1,1.23,1.29,0,.18,0,.48,0,.69a8.53,8.53,0,0,0,.22,1.82c.33,1.16,1.82,2.06,2.78,2.53.65.54,2.06,1.74,2.56,2.24.74.74,2.14,1,4.7,1h.12A4.7,4.7,0,0,0,717,753a17.71,17.71,0,0,1,4.35-1.1,28.35,28.35,0,0,0,7,2.82c1.27.47,9.42,5.16,10.36,6.33a13.14,13.14,0,0,0,1.82,2.45,1.39,1.39,0,0,0,.21.17s4.61,3.11,6.4,4.56c.87.71.76,1.23.38,2.44-.05.18-.11.35-.15.51-.31,1.12-.58,2.71.38,3.9-.07.18-.2.43-.28.59l-.08.17a12.6,12.6,0,0,1-1,.83c-1.32,1.08-2.47,2-2.47,3.22,0,2.16,3.37,3.23,5.38,3.67a6.48,6.48,0,0,0,1.41.16,6.16,6.16,0,0,0,4.75-2.16c1.25-1.61,1-5.16.2-6.45a2,2,0,0,1-.26-.89c.87-1.18,3.68-5,5.08-6.46s2.7-1.65,5.65-2c2.63-.31,4.78-2.51,5.76-3.69a5,5,0,0,0,2-.32,3,3,0,0,0,1.81-2.83l0-.23a5.67,5.67,0,0,1,1.32.7,1.79,1.79,0,0,0,1.48.26,2.47,2.47,0,0,0,1.46-1.55,3.51,3.51,0,0,1,.39-.7,29.82,29.82,0,0,1,3.61-2.35c.56-.33,1.07-.63,1.42-.86C787.77,752.74,786.44,749,785.43,747.42Zm-1.51,4.47-1.3.78a21.6,21.6,0,0,0-4.3,2.93,4.61,4.61,0,0,0-.6.92c-1-.54-2.49-1.07-3.68-.22a3,3,0,0,0-1.06,2.27,5,5,0,0,1-.1.6,1.9,1.9,0,0,1-1,.09,1.27,1.27,0,0,0-1.66.49c-.58.83-2.51,3-4.36,3.24-2.93.35-5.25.63-7.35,2.86-1.78,1.89-5.41,6.87-5.56,7.08a1.39,1.39,0,0,0-.26.68,5.09,5.09,0,0,0,.67,3,5.13,5.13,0,0,1,0,3.28,3.48,3.48,0,0,1-3.36,1,10.68,10.68,0,0,1-2.92-1c.34-.33.84-.73,1.16-1a6,6,0,0,0,1.66-1.67l.1-.2c.4-.77,1.22-2.36,0-3.6-.06-.06-.15-.43.13-1.43,0-.14.08-.28.13-.43.38-1.22,1.07-3.5-1.29-5.42-1.73-1.4-5.69-4.09-6.47-4.62a11.12,11.12,0,0,1-1.33-1.84c-.2-.34-.73-1.25-6.21-4.49-4.8-2.85-5.8-3.12-6.16-3.15a30.1,30.1,0,0,1-5.79-2.32c-1.11-1-3.1-.54-6.87.7l-.71.23h0a7.66,7.66,0,0,1-2.74-.23c-.78-.76-2.73-2.39-2.82-2.46a1.4,1.4,0,0,0-.3-.19,6.09,6.09,0,0,1-1.48-1,9.8,9.8,0,0,1-.1-1.11,3.82,3.82,0,0,0-.41-2,15.06,15.06,0,0,0-1.34-1.49,4,4,0,0,0-.84-1.88c-.16-.19-.44-.5-.78-.88-.56-.62-1.81-2-2.17-2.56,0-.37.15-1.16.23-1.66.31-1.92.49-3-.52-3.56l.24,0h.07c.35,0,3.46-.21,5.2-1.4a2.1,2.1,0,0,1,.29-.17,7.53,7.53,0,0,0,3,3.48,11.35,11.35,0,0,0,4.2,1.64,8.21,8.21,0,0,0,1.62-.12c.91-.12,2.6-.34,3.21,0a14.49,14.49,0,0,1,1.44,1.06,18.39,18.39,0,0,0,6,3.54c4.23,1.28,8.11,1.13,10.9-.42,2.95-1.64,8-7.07,8.18-7.32l1.93-2.16.1-.13c.12-.09.89-.61,3.31-.42,3.39.27,7.44,1.07,14,5.05,5.89,3.57,9.9,6.4,10.5,6.83a8.14,8.14,0,0,1,1.74,2.38c.35,1.06,1.45,2.11,3.09,3.59a14.92,14.92,0,0,1,1.82,1.81A5,5,0,0,1,783.92,751.89ZM773.25,768a14.59,14.59,0,0,0-6.1,1.3,4.55,4.55,0,0,0-2.29,3,3.74,3.74,0,0,0-1,3,1.86,1.86,0,0,0,1.23,1.25l.21.07h.22a7.08,7.08,0,0,1,1.95.26c.45.18,2.37,1.43,3.4,2.11a12.08,12.08,0,0,0,2.1,1.27,4.56,4.56,0,0,0,1.25.14,6,6,0,0,0,2.93-.66,2.45,2.45,0,0,0,1.23-1.72,10.56,10.56,0,0,0-.84-6.33C776.43,769.43,774.89,768.14,773.25,768Zm2.46,9.33a4.61,4.61,0,0,1-1.79.22c-.29-.18-.94-.6-1.47-.95a31.06,31.06,0,0,0-3.95-2.38,6.7,6.7,0,0,0-1.39-.33l.12-.15.25-.3.06-.39a1.93,1.93,0,0,1,.87-1.27,12.24,12.24,0,0,1,4.58-1c.51.05,1.35.65,2.16,2.17A7.8,7.8,0,0,1,775.71,777.31Z" id="el_DrF0PKWRgO"/>
  </g>
</svg>